<svg width="120" height="36" viewBox="0 0 120 36" fill="none" xmlns="http://www.w3.org/2000/svg">
<path d="M0.651989 28V0.363636H11.5554C13.6515 0.363636 15.4373 0.763967 16.9126 1.56463C18.388 2.3563 19.5125 3.45833 20.2862 4.87074C21.0689 6.27415 21.4602 7.89347 21.4602 9.72869C21.4602 11.5639 21.0644 13.1832 20.2727 14.5866C19.4811 15.9901 18.334 17.0831 16.8317 17.8658C15.3383 18.6484 13.5301 19.0398 11.407 19.0398H4.45739V14.3572H10.4624C11.5869 14.3572 12.5135 14.1638 13.2422 13.777C13.9799 13.3812 14.5286 12.8369 14.8885 12.1442C15.2573 11.4425 15.4418 10.6373 15.4418 9.72869C15.4418 8.81108 15.2573 8.01042 14.8885 7.3267C14.5286 6.63399 13.9799 6.09872 13.2422 5.72088C12.5045 5.33404 11.5689 5.14062 10.4354 5.14062H6.49503V28H0.651989ZM30.5014 28.3913C29.179 28.3913 28.0005 28.1619 26.9659 27.7031C25.9313 27.2353 25.1127 26.5471 24.5099 25.6385C23.9162 24.7209 23.6193 23.5784 23.6193 22.2109C23.6193 21.0594 23.8307 20.0923 24.2536 19.3097C24.6764 18.527 25.2521 17.8973 25.9808 17.4205C26.7095 16.9437 27.5372 16.5838 28.4638 16.3409C29.3994 16.098 30.38 15.9271 31.4055 15.8281C32.611 15.7022 33.5826 15.5852 34.3203 15.4773C35.058 15.3603 35.5933 15.1894 35.9261 14.9645C36.259 14.7396 36.4254 14.4067 36.4254 13.9659V13.8849C36.4254 13.0303 36.1555 12.3691 35.6158 11.9013C35.085 11.4335 34.3293 11.1996 33.3487 11.1996C32.3142 11.1996 31.491 11.429 30.8793 11.8878C30.2675 12.3376 29.8627 12.9044 29.6648 13.5881L24.348 13.1562C24.6179 11.8968 25.1487 10.8082 25.9403 9.89062C26.732 8.96401 27.7531 8.25331 29.0036 7.75852C30.263 7.25473 31.7204 7.00284 33.3757 7.00284C34.5272 7.00284 35.6293 7.13778 36.6818 7.40767C37.7434 7.67756 38.6835 8.09588 39.5021 8.66264C40.3298 9.2294 40.982 9.9581 41.4588 10.8487C41.9356 11.7303 42.174 12.7874 42.174 14.0199V28H36.7223V25.1257H36.5604C36.2275 25.7734 35.7822 26.3447 35.2244 26.8395C34.6667 27.3253 33.9964 27.7076 33.2138 27.9865C32.4311 28.2564 31.527 28.3913 30.5014 28.3913ZM32.1477 24.424C32.9934 24.424 33.7401 24.2576 34.3878 23.9247C35.0355 23.5829 35.5438 23.1241 35.9126 22.5483C36.2815 21.9725 36.4659 21.3203 36.4659 20.5916V18.392C36.286 18.509 36.0386 18.617 35.7237 18.7159C35.4179 18.8059 35.0715 18.8913 34.6847 18.9723C34.2978 19.0443 33.911 19.1117 33.5241 19.1747C33.1373 19.2287 32.7865 19.2782 32.4716 19.3232C31.7969 19.4221 31.2076 19.5795 30.7038 19.7955C30.2 20.0114 29.8087 20.3037 29.5298 20.6726C29.2509 21.0324 29.1115 21.4822 29.1115 22.022C29.1115 22.8047 29.3949 23.4029 29.9616 23.8168C30.5374 24.2216 31.2661 24.424 32.1477 24.424ZM49.4407 35.7727C48.712 35.7727 48.0283 35.7143 47.3896 35.5973C46.7598 35.4893 46.238 35.3499 45.8242 35.179L47.1197 30.8878C47.7944 31.0947 48.4016 31.2071 48.9414 31.2251C49.4902 31.2431 49.9625 31.1172 50.3583 30.8473C50.7631 30.5774 51.0915 30.1186 51.3434 29.4709L51.6808 28.5938L44.2454 7.27273H50.2908L54.582 22.4943H54.7979L59.1296 7.27273H65.2156L57.1594 30.2401C56.7726 31.3556 56.2463 32.3272 55.5806 33.1548C54.9239 33.9915 54.0917 34.6347 53.0842 35.0845C52.0766 35.5433 50.8621 35.7727 49.4407 35.7727ZM68.2653 28V0.363636H79.1687C81.2648 0.363636 83.0505 0.763967 84.5259 1.56463C86.0013 2.3563 87.1258 3.45833 87.8995 4.87074C88.6822 6.27415 89.0735 7.89347 89.0735 9.72869C89.0735 11.5639 88.6777 13.1832 87.886 14.5866C87.0943 15.9901 85.9473 17.0831 84.445 17.8658C82.9516 18.6484 81.1433 19.0398 79.0202 19.0398H72.0707V14.3572H78.0756C79.2002 14.3572 80.1268 14.1638 80.8555 13.777C81.5932 13.3812 82.1419 12.8369 82.5018 12.1442C82.8706 11.4425 83.055 10.6373 83.055 9.72869C83.055 8.81108 82.8706 8.01042 82.5018 7.3267C82.1419 6.63399 81.5932 6.09872 80.8555 5.72088C80.1178 5.33404 79.1822 5.14062 78.0487 5.14062H74.1083V28H68.2653ZM98.1147 28.3913C96.7923 28.3913 95.6138 28.1619 94.5792 27.7031C93.5446 27.2353 92.726 26.5471 92.1232 25.6385C91.5295 24.7209 91.2326 23.5784 91.2326 22.2109C91.2326 21.0594 91.444 20.0923 91.8668 19.3097C92.2897 18.527 92.8654 17.8973 93.5941 17.4205C94.3228 16.9437 95.1505 16.5838 96.0771 16.3409C97.0127 16.098 97.9933 15.9271 99.0188 15.8281C100.224 15.7022 101.196 15.5852 101.934 15.4773C102.671 15.3603 103.207 15.1894 103.539 14.9645C103.872 14.7396 104.039 14.4067 104.039 13.9659V13.8849C104.039 13.0303 103.769 12.3691 103.229 11.9013C102.698 11.4335 101.943 11.1996 100.962 11.1996C99.9274 11.1996 99.1043 11.429 98.4925 11.8878C97.8808 12.3376 97.476 12.9044 97.2781 13.5881L91.9613 13.1562C92.2312 11.8968 92.762 10.8082 93.5536 9.89062C94.3453 8.96401 95.3664 8.25331 96.6168 7.75852C97.8763 7.25473 99.3337 7.00284 100.989 7.00284C102.141 7.00284 103.243 7.13778 104.295 7.40767C105.357 7.67756 106.297 8.09588 107.115 8.66264C107.943 9.2294 108.595 9.9581 109.072 10.8487C109.549 11.7303 109.787 12.7874 109.787 14.0199V28H104.336V25.1257H104.174C103.841 25.7734 103.395 26.3447 102.838 26.8395C102.28 27.3253 101.61 27.7076 100.827 27.9865C100.044 28.2564 99.1403 28.3913 98.1147 28.3913ZM99.761 24.424C100.607 24.424 101.353 24.2576 102.001 23.9247C102.649 23.5829 103.157 23.1241 103.526 22.5483C103.895 21.9725 104.079 21.3203 104.079 20.5916V18.392C103.899 18.509 103.652 18.617 103.337 18.7159C103.031 18.8059 102.685 18.8913 102.298 18.9723C101.911 19.0443 101.524 19.1117 101.137 19.1747C100.751 19.2287 100.4 19.2782 100.085 19.3232C99.4102 19.4221 98.8209 19.5795 98.3171 19.7955C97.8133 20.0114 97.422 20.3037 97.1431 20.6726C96.8642 21.0324 96.7248 21.4822 96.7248 22.022C96.7248 22.8047 97.0082 23.4029 97.5749 23.8168C98.1507 24.2216 98.8794 24.424 99.761 24.424ZM119.996 0.363636V28H114.247V0.363636H119.996Z" fill="black"/>
</svg>
